<svg width="30" height="30" viewBox="0 0 30 30" xmlns="http://www.w3.org/2000/svg">
  <path d="M28,4v22h-4.268C23.902,25.706,24,25.364,24,25c0-1.103-0.897-2-2-2s-2,0.897-2,2v1H10v-1c0-1.103-0.897-2-2-2s-2,0.897-2,2c0,0.364,0.098,0.706,0.268,1H2V4H28 M29,3H1v24h7v-1c-0.552,0-1-0.448-1-1c0-0.552,0.448-1,1-1s1,0.448,1,1v2h12v-2c0-0.552,0.448-1,1-1s1,0.448,1,1c0,0.552-0.448,1-1,1v1h7V3L29,3z"></path>
  <circle cx="9" cy="11" r="3"></circle>
  <path d="M14,20c0-2.761-2.239-5-5-5c-2.761,0-5,2.239-5,5H14z"></path>
  <rect x="17" y="11" width="9" height="1"></rect>
  <rect x="17" y="14" width="9" height="1"></rect>
  <rect x="17" y="17" width="9" height="1"></rect>
</svg>
