<svg width="30" height="30" viewBox="0 0 64 64" xmlns="http://www.w3.org/2000/svg">
  <path
    d="M 5 4 C 3.347656 4 2 5.347656 2 7 L 2 55 C 2 56.652344 3.347656 58 5 58 L 31.207031 58 C 31.148438 58.84375 31.363281 59.691406 31.859375 60.402344 C 32.554688 61.402344 33.703125 62 34.921875 62 L 35.09375 62 C 36.648438 62 38.058594 61.023438 38.601563 59.566406 L 44.574219 43.542969 L 45.75 48.527344 C 46.378906 51.171875 48.140625 53.371094 50.589844 54.558594 L 56.921875 57.621094 C 57.851563 58.070313 58.933594 58.113281 59.898438 57.738281 C 60.863281 57.367188 61.636719 56.605469 62.023438 55.636719 C 62.726563 53.875 62.003906 51.863281 60.339844 50.957031 L 54.042969 47.535156 C 53.800781 47.40625 53.621094 47.175781 53.550781 46.90625 L 51.976563 40.777344 L 49.421875 28 C 50.191406 28.023438 50.917969 28.332031 51.464844 28.878906 L 54.292969 31.707031 C 55.738281 33.152344 58.261719 33.152344 59.707031 31.707031 C 61.199219 30.214844 61.199219 27.785156 59.707031 26.292969 L 57.683594 24.269531 C 54.9375 21.523438 51.464844 19.703125 47.644531 19.011719 L 46.792969 18.855469 C 45.21875 18.570313 43.605469 18.464844 42 18.542969 L 42 17.910156 C 44.835938 17.433594 47 14.96875 47 12 C 47 8.976563 44.75 6.472656 41.839844 6.0625 C 41.441406 4.871094 40.324219 4 39 4 Z M 5 6 L 39 6 C 39.207031 6 39.386719 6.078125 39.546875 6.1875 C 36.941406 6.839844 35 9.191406 35 12 C 35 14.96875 37.167969 17.429688 40 17.910156 L 40 18.742188 C 39.058594 18.878906 38.128906 19.066406 37.21875 19.328125 C 35.421875 19.839844 33.777344 20.808594 32.460938 22.125 L 27.878906 26.707031 C 27.691406 26.890625 27.433594 27 27.171875 27 L 23.5 27 C 21.570313 27 20 28.570313 20 30.5 C 20 32.429688 21.570313 34 23.5 34 L 27.6875 34 C 30.089844 34 32.351563 33.0625 34.050781 31.363281 L 35.71875 29.695313 L 37.734375 39.765625 L 33.8125 50.449219 C 33.628906 50.183594 33.34375 50 33 50 C 32.445313 50 32 50.449219 32 51 L 32 53 C 32 53.386719 32.226563 53.714844 32.550781 53.878906 L 31.769531 56 L 5 56 C 4.449219 56 4 55.550781 4 55 L 4 7 C 4 6.449219 4.449219 6 5 6 Z M 41 8 C 43.207031 8 45 9.792969 45 12 C 45 14.207031 43.207031 16 41 16 C 38.792969 16 37 14.207031 37 12 C 37 9.792969 38.792969 8 41 8 Z M 43.171875 20.515625 C 44.265625 20.527344 45.359375 20.628906 46.4375 20.824219 L 47.289063 20.976563 C 50.707031 21.597656 53.8125 23.226563 56.265625 25.683594 L 58.292969 27.703125 C 59.007813 28.417969 59.007813 29.578125 58.292969 30.292969 C 57.601563 30.984375 56.394531 30.984375 55.703125 30.292969 L 52.878906 27.464844 C 51.9375 26.519531 50.679688 26 49.34375 26 L 48.199219 26 C 47.898438 26 47.617188 26.132813 47.425781 26.363281 C 47.238281 26.597656 47.160156 26.902344 47.21875 27.195313 L 50.019531 41.195313 C 50.023438 41.214844 50.027344 41.230469 50.03125 41.25 L 51.613281 47.40625 C 51.824219 48.210938 52.359375 48.898438 53.089844 49.296875 L 59.382813 52.714844 C 60.15625 53.136719 60.492188 54.074219 60.160156 54.902344 C 59.980469 55.351563 59.632813 55.699219 59.175781 55.875 C 58.726563 56.054688 58.230469 56.035156 57.789063 55.820313 L 51.460938 52.757813 C 49.554688 51.835938 48.183594 50.125 47.699219 48.066406 L 45.972656 40.769531 C 45.867188 40.320313 45.464844 40 45 40 L 44.453125 40 C 44.035156 40 43.664063 40.257813 43.515625 40.652344 L 36.730469 58.867188 C 36.476563 59.542969 35.820313 60 35.097656 60 L 34.925781 60 C 34.351563 60 33.828125 59.730469 33.5 59.253906 C 33.167969 58.78125 33.09375 58.199219 33.292969 57.660156 L 39.707031 40.191406 C 39.769531 40.019531 39.785156 39.832031 39.75 39.652344 L 37.3125 27.46875 C 37.242188 27.109375 36.976563 26.816406 36.625 26.707031 C 36.527344 26.679688 36.429688 26.667969 36.332031 26.667969 C 36.070313 26.667969 35.816406 26.769531 35.625 26.957031 L 32.636719 29.949219 C 31.3125 31.273438 29.558594 32 27.6875 32 L 23.5 32 C 22.671875 32 22 31.328125 22 30.5 C 22 29.671875 22.671875 29 23.5 29 L 27.171875 29 C 27.972656 29 28.726563 28.6875 29.292969 28.121094 L 33.875 23.539063 C 34.953125 22.460938 36.296875 21.667969 37.765625 21.25 C 39.519531 20.75 41.347656 20.503906 43.171875 20.515625 Z M 8 50 C 7.445313 50 7 50.449219 7 51 L 7 53 C 7 53.550781 7.445313 54 8 54 C 8.554688 54 9 53.550781 9 53 L 9 51 C 9 50.449219 8.554688 50 8 50 Z M 13 50 C 12.445313 50 12 50.449219 12 51 L 12 53 C 12 53.550781 12.445313 54 13 54 C 13.554688 54 14 53.550781 14 53 L 14 51 C 14 50.449219 13.554688 50 13 50 Z M 18 50 C 17.445313 50 17 50.449219 17 51 L 17 53 C 17 53.550781 17.445313 54 18 54 C 18.554688 54 19 53.550781 19 53 L 19 51 C 19 50.449219 18.554688 50 18 50 Z M 23 50 C 22.445313 50 22 50.449219 22 51 L 22 53 C 22 53.550781 22.445313 54 23 54 C 23.554688 54 24 53.550781 24 53 L 24 51 C 24 50.449219 23.554688 50 23 50 Z M 28 50 C 27.445313 50 27 50.449219 27 51 L 27 53 C 27 53.550781 27.445313 54 28 54 C 28.554688 54 29 53.550781 29 53 L 29 51 C 29 50.449219 28.554688 50 28 50 Z "/>
</svg>
