<svg xmlns="http://www.w3.org/2000/svg" viewBox="0 0 30 30">
  <path fill="#000000" d="M15,7c6.557,0,12.24,6.957,13.768,9.001C27.243,18.045,21.57,25,15,25c-6.557,0-12.24-6.957-13.768-9.001C2.757,13.955,8.43,7,15,7 M15,6C6.716,6,0,16,0,16s6.716,10,15,10s15-10,15-10S23.284,6,15,6L15,6z"/>
  <path fill="#000000" d="M15,10c3.308,0,6,2.692,6,6s-2.692,6-6,6s-6-2.692-6-6S11.692,10,15,10 M15,9c-3.866,0-7,3.134-7,7s3.134,7,7,7s7-3.134,7-7S18.866,9,15,9L15,9z"/>
  <circle fill="#000000" cx="15" cy="16" r="3"/>
</svg>
