<svg xmlns="http://www.w3.org/2000/svg" viewBox="0 0 30 30">
  <g>
    <path style="fill:#FFFFFF;" d="M15,25.5c-7.161,0-13.234-7.901-14.388-9.5C1.767,14.403,7.846,6.5,15,6.5c7.161,0,13.234,7.901,14.388,9.5C28.233,17.597,22.154,25.5,15,25.5z"/>
    <g>
      <path style="fill:#BA9B48;" d="M15,7c6.557,0,12.24,6.957,13.768,9.001C27.243,18.045,21.57,25,15,25c-6.557,0-12.24-6.957-13.768-9.001C2.757,13.955,8.43,7,15,7 M15,6C6.716,6,0,16,0,16s6.716,10,15,10s15-10,15-10S23.284,6,15,6L15,6z"/>
    </g>
  </g>
  <g>
    <path style="fill:#8BB7F0;" d="M15,22.5c-3.584,0-6.5-2.916-6.5-6.5s2.916-6.5,6.5-6.5s6.5,2.916,6.5,6.5S18.584,22.5,15,22.5z"/>
    <path style="fill:#4E7AB5;" d="M15,10c3.308,0,6,2.692,6,6s-2.692,6-6,6s-6-2.692-6-6S11.692,10,15,10 M15,9c-3.866,0-7,3.134-7,7s3.134,7,7,7s7-3.134,7-7S18.866,9,15,9L15,9z"/>
  </g>
  <circle style="fill:#36404D;" cx="15" cy="16" r="3"/>
  <circle style="fill:#FFFFFF;" cx="17" cy="13" r="1.5"/>
</svg>
