<svg width="35" height="35" viewBox="0 0 1024 1024" xmlns="http://www.w3.org/2000/svg">
  <path d="M522 1024q-52 0-101.5-10t-95-29.5-86.5-47-75-61.5q-8-8-14.5-19t-6.5-22q0-23 14.5-37.5T195 783q11 0 22 6.5t19 14.5q26 27 58.5 48.5t69 37 76.5 24 82 8.5q83 0 155.5-32.5t127-88 86-130.5T922 512t-31.5-159-86-130.5-127-88T522 102q-42 0-82 8.5T363.5 135t-69 38.5T236 225q-8 8-17 12t-24 4q-23 0-37.5-16T143 189q0-11 6.5-22t14.5-19q34-34 75-61.5t86.5-47 95-29.5T522 0q104 0 195.5 40.5t159.5 110T984.5 313t39.5 199-39.5 199T877 873.5t-159.5 110T522 1024zm-10-358V563h51v103h-51zM348 461h348q12 0 16.5 5.5t4.5 9.5v190H614V563H348q-15 58-63 95.5T179 696q-73-4-126-55.5T0 512t53-130.5T179 328q62 0 108 37.5t61 95.5zM77 512q0 42 30 72t72 30 72.5-30 30.5-72-30.5-72-72.5-30-72 30-30 72z"/>
</svg>
