<svg width="35" height="35" viewBox="0 0 16 16" xmlns="http://www.w3.org/2000/svg">
  <g>
    <circle fill="#F78F8F" cx="8" cy="8" r="7.5"/>
    <path fill="#C74343" d="M8,1c3.9,0,7,3.1,7,7s-3.1,7-7,7s-7-3.1-7-7S4.1,1,8,1 M8,0C3.6,0,0,3.6,0,8s3.6,8,8,8s8-3.6,8-8 S12.4,0,8,0L8,0z"/>
    <circle fill="#C74343" cx="8" cy="8" r="6"/>
  </g>
  <g fill="#FFEEA3">
    <path d="M7.7,8.4C4.5,5.9,5.4,3,5.4,2.8l1,0.3c0,0.1-0.7,2.4,1.9,4.5L7.7,8.4z"/>
    <path d="M10.6,13.2l-1-0.3l0.5,0.2l-0.5-0.1c0-0.1,0.7-2.4-1.9-4.5l0.6-0.8C11.5,10.1,10.6,13,10.6,13.2z"/>
    <path d="M8.4,8.3L7.6,7.7c2.5-3.2,5.4-2.3,5.6-2.2l-0.3,1L13,5.9l-0.1,0.5C12.8,6.4,10.4,5.7,8.4,8.3z"/>
    <path d="M3.9,10.7c-0.6,0-1.1-0.1-1.1-0.1l0.3-1c0.1,0,2.4,0.7,4.5-1.9l0.8,0.6C6.8,10.3,5.1,10.7,3.9,10.7z"/>
    <path d="M7.5,8.1C7,4.1,9.7,2.6,9.8,2.5l0.5,0.9L10.1,3l0.2,0.4c-0.1,0-2.2,1.2-1.8,4.5L7.5,8.1z"/>
    <path d="M6.2,13.5l-0.5-0.9L5.9,13l-0.2-0.4c0.1,0,2.2-1.2,1.8-4.5l1-0.1C9,11.9,6.3,13.4,6.2,13.5z"/>
    <path d="M12.6,10.3c0-0.1-1.2-2.2-4.5-1.8l-0.1-1c4-0.5,5.5,2.2,5.5,2.3L12.6,10.3l0.4-0.2L12.6,10.3z"/>
    <path d="M7.1,8.6c-3.3,0-4.5-2.3-4.6-2.4l0.9-0.5L3,5.9l0.4-0.2c0,0.1,1.2,2.2,4.5,1.8l0.1,1 C7.7,8.5,7.4,8.6,7.1,8.6z"/>
  </g>
  <g>
    <circle fill="#F78F8F" cx="8" cy="8" r="1.5"/>
    <path fill="#C74343" d="M8,7c0.6,0,1,0.4,1,1S8.6,9,8,9S7,8.6,7,8S7.4,7,8,7 M8,6C6.9,6,6,6.9,6,8s0.9,2,2,2s2-0.9,2-2 S9.1,6,8,6L8,6z"/>
    <circle fill="#C74343" cx="8" cy="8" r="0.1"/>
  </g>
</svg>
