<svg xmlns="http://www.w3.org/2000/svg" viewBox="0 0 1024 1024"><path d="M881 944L627 570q-5-7-14-9t-17 2l-32 20q-7 4-9.5 13t1.5 17l210 400q4 8 12.5 10.5t16.5-2.5l80-48q8-5 9.5-13.5T881 944zM593 532q36-23 54.5-62.5t20-88.5-15-104T602 168q-29-45-64.5-79.5t-73.5-56-76.5-29T315 4q-16 3-36 11.5T239 37q-21 13-36.5 27.5T177 92q-22 28-31 66t-6 81.5 19.5 90T205 422q34 53 76.5 91t87.5 57.5 89 19.5 80-23l55-35zm-35-54q-24 15-55.5 12.5t-65-19.5-66-47.5T313 352q-25-40-39-82.5t-15.5-80 9.5-67T303 78t55.5-13 65 19.5 66 47.5 58.5 71 39.5 83 15 79.5-9.5 67-35 45.5z"/></svg>