<svg width="35" height="35" viewBox="0 0 948 1024" xmlns="http://www.w3.org/2000/svg">
  <path d="M-246 841q12 60 6 125.5l-6 65.5h-67.5l-153 .5-164.5.5-103-1h-479l-6-70.5 11-120.5q11-22 28-40t44-26q42-13 84.5-26t78-24 57.5-18l22-7-4 12.5-4 28.5q0 8 8 39.5t27.5 71.5 53.5 80.5 86 66.5q53-26 87-66.5t53.5-80.5 27.5-71.5 8-39.5q0-16-4.5-28.5L-560 700l22.5 7 57.5 18 78 24 84 26q27 8 44 26t28 40zm-547-100q0-15 16.5-28l16.5-13h67l16.5 13 16.5 28q0 8-25 29l-25 21 25 51 25 66q0 13-33.5 35.5L-727 966l-33-22.5-33-35.5q0-15 25-66l25-51-25-21-25-29zm309-524q0 44-4.5 71.5L-493 316l17 4.5 17 45.5q0 34-21.5 64t-37.5 70q-51 85-96.5 125.5T-727 666q-66 0-111.5-40.5T-935 500q-16-40-37.5-70t-21.5-64q0-41 17-45.5l17-4.5-4.5-27.5-4.5-71.5q0-23 8-59.5t33-71.5 73-60.5T-727 0q81 0 129 25.5t73 60.5 33 71.5 8 59.5zm-343-67q-19 0-59.5 32t-40.5 76q0 45 8.5 85l8.5 40-25-50h-12.5l-12.5 25q0 36 13.5 58.5T-910 483q59 119 104 134.5t79 15.5q35 0 80-15.5T-543 483q23-44 36.5-66.5T-493 358q0-25-12.5-25H-518l-25 50 8-37 9-79q-88 0-146-18.5t-92.5-40.5-48.5-40l-14-18zM942 833q14 51 .5 121l-13.5 70H351l-152-.5-127.5-.5H18l-4.5-24L5 942.5 0 877l7-51q10-22 27-39.5T77 761q40-12 82-25t76.5-24 56.5-17.5l22-6.5-4.5 12-4.5 28q0 8 8 38.5t27 69.5 52 78.5 84 65.5q51-26 84.5-65.5T613 836t26.5-69.5T647 728q0-16-4-28l-4-12 22 6.5 56 17.5 76 24 82 25q26 8 41.5 29t25.5 43zM712 203q0 27-4 66.5l-4 39.5 16.5 4.5L737 358l-24 72.5-25 32.5q0 106 53 134.5l53 28.5-15.5 12-82.5 12q-66 0-90-24l-24-24-34.5 24-71.5 24-71.5-24-34.5-24-24 24-90 24q-67 0-82.5-12L158 626l53-28.5L264 463q-1 0-25-32.5T215 358t16.5-44.5L248 309l-4-39.5-4-66.5q0-13 7-46.5T279 88t71.5-61.5T476 0t125.5 26.5T673 88t32 68.5 7 46.5zm-430 87q3 37 9 64.5l6 27.5-12-28.5-21-28.5-16.5 7.5L240 358l22.5 61 57.5 87.5 76.5 78L476 618l79.5-33.5 76.5-78 57.5-87.5 22.5-61-7.5-25.5L688 325l-21 28.5-12 28.5 8.5-38.5L672 260l-37-79.5-37-34.5-42 57-251 57q-4 0-12 12.5T282 290z"/>
</svg>
