<svg width="30" height="28.844" xmlns="http://www.w3.org/2000/svg" viewBox="-22 7 1045 1005">
  <path
    d="M736 696c-1 0-10-12-31-18l-6-2c-29-12-52-20-57-21-14-5-25-10-38-17l-18-11-1-1c-27 20-57 31-87 31-29 0-58-13-84-33-2 3-5 6-8 7-16 14-40 24-60 31-21 7-41 13-52 17-21 6-30 18-30 18-27 38-39 111-45 161 80 59 180 92 281 92s201-33 281-92c-6-50-18-123-45-162zM500 68C247 68 41 266 41 509c0 110 43 216 120 297 8-49 23-107 50-145 18-26 62-42 62-42 45-13 89-31 99-39-18-26-32-54-38-83-6-9-11-20-13-32-7-24-9-49 2-67-9-57-1-85 3-96 24-70 96-101 109-106 1-1 17-7 33-7h4c4 0 8-1 11-1 6 0 31 2 69 14l22 7c49 17 75 42 83 51 43 47 36 111 28 145 7 18 5 39-1 62-2 11-7 22-14 31-6 28-20 56-39 82 4 3 10 6 20 11 3 1 7 3 19 6 15 5 33 12 52 21 26 7 47 19 64 39l3 3c26 38 42 96 50 146 77-81 120-187 120-297 0-243-205-441-459-441zm125 359c-7-7-8-18-5-26 8-29 13-73-12-100-2-2-18-20-54-32l-22-7c-24-8-42-10-48-11-6 1-12 2-23 3-29 7-65 43-74 68 0 3-7 23 2 79 2 11-2 21-9 28 0 3 0 11 4 22 2 8 4 11 4 11 5 5 8 11 9 17 10 63 64 115 101 115 47 0 100-58 110-115 1-6 4-12 9-17 1 0 2-3 3-8 3-9 5-16 6-20 1-5 3-2-1-7zm-125 582c-287 0-520-224-520-500S213 9 500 9s520 224 520 500-233 500-520 500z"/>
</svg>
