<svg width="35" height="35" viewBox="0 0 973 1024" xmlns="http://www.w3.org/2000/svg">
  <path d="M965 835q13 59 6.5 124l-6.5 65H7l-6-70 11-119q10-23 27-41t44-26q41-12 83.5-25t77.5-24 57-18l22-7-4 12.5-4 28.5q0 8 8 39.5t27.5 71 53 79.5 85.5 66q52-26 85.5-66t53-79.5 27.5-71 8-39.5q0-16-4.5-28.5L654 694l22.5 7 57 18 77 24 83.5 25q27 8 44 26t27 41zM423 735q0-15 16.5-28l16.5-13h66l16.5 13 16.5 28q0 7-25 28.5L505 785l25 50 25 65q0 14-33 36l-33 22-33-22-33-36q0-15 25-65l25-50-25-21.5-25-28.5zm306-520q0 44-4 71.5l-4 27.5 16.5 4 16.5 45q0 34-21 63.5T696 496q-51 84-96 124.5T489 661t-111-40.5T282 496q-16-40-37-69.5T224 363q0-41 16.5-45l16.5-4-4-27.5-4-71.5q0-22 7.5-58.5T289 85t72.5-60T489 0t127.5 25T689 85t32.5 71.5T729 215zm-339-66q-20 0-60 31.5T290 256t8.5 84l8.5 40-25-50h-12.5L257 355q0 36 13.5 58.5T307 479q58 118 103 133.5t79 15.5 79-15.5T671 479q23-43 36.5-65.5T721 355q0-25-12.5-25H696l-25 50 7.5-36.5L688 264q-88 0-145.5-18T451 206.5 403.5 167L390 149zm1754 677q14 51 .5 120.5L2131 1016h-447q-49 0-126.5-.5t-151-.5H1228l-5-24-9-56.5-4.5-65 7.5-49.5q10-23 26.5-40.5T1286 755q40-13 81.5-25.5t75.5-23 56-17.5l22-7-4.5 12.5-4.5 27.5q0 8 7.5 38.5t27 69 52 78T1682 972q51-25 83.5-64.5t51.5-78 26.5-69 7.5-38.5q0-15-4-27.5l-4-12.5 22 7 55.5 17.5 75 23L2077 755q26 7 41.5 28t25.5 43zm-228-624q0 26-4 65.5l-4 39.5 16 4 16 44-23.5 72-24.5 33q0 104 52.5 132.5L1997 621l-15.5 12-81.5 12-89.5-24-23.5-24-34.5 24-70.5 24q-37 0-71-24l-34-24-24 24-90 24q-65 0-81-12l-16-12 52.5-28.5L1471 460q0-1-24-33t-24-72 16-44.5l16-4.5-4-39-4-65q0-14 7.5-47t32-67.5 71-61T1682 0t124 26.5 70.5 61 32 67.5 7.5 47zm-427 86q3 36 9 63.5l6 27.5-11.5-28-21.5-28q-9 0-16.5 7.5T1447 355q0 18 22.5 61t57.5 86.5 76 77 79 33.5q37 0 78.5-33.5t76-77 57-86.5 22.5-61q0-17-7.5-24.5T1892 323t-20.5 28l-11.5 28 8-38.5 8-82.5-36.5-78.5L1803 145l-42 56.5-249 56.5q-4 0-12 12.5t-11 17.5z"/>
</svg>
