<svg xmlns="http://www.w3.org/2000/svg" viewBox="0 0 350 350">
  <defs>
    <linearGradient id="c" x1="-266.1" x2="-26.201" y1="471.38" y2="471.38" gradientTransform="translate(1.4286 -1.4286)" gradientUnits="userSpaceOnUse">
      <stop stop-color="#fff" offset="0"/>
      <stop stop-color="#fff" stop-opacity="0" offset="1"/>
    </linearGradient>
    <linearGradient id="b" x1="-292.74" x2="-288.84" y1="597.81" y2="467.81" gradientUnits="userSpaceOnUse">
      <stop stop-color="#fff" offset="0"/>
      <stop stop-color="#fff" stop-opacity="0" offset="1"/>
    </linearGradient>
    <linearGradient id="a" x1="-85.384" x2="-317.16" y1="529.85" y2="628.84" gradientUnits="userSpaceOnUse">
      <stop stop-color="#fff" offset="0"/>
      <stop stop-color="#fff" stop-opacity="0" offset="1"/>
    </linearGradient>
  </defs>
  <g transform="translate(-149.46 -152.13)">
    <g transform="translate(-25.114 -163.57)">
      <g transform="translate(541.96 -13.811)" stroke="#4A76A8" stroke-width="2" stroke-linecap="round" stroke-linejoin="round">
        <path d="m-287.69 405.02c-4.3509-4.1702-10.099-5.2538-16.196 0.0565-16.968 15.596-27.706 37.246-35.389 61.121-20.491 55.143-3.5256 119.61 36.5 161.56 39.99 43.44 106.13 61.969 162.31 42.469 20.702-6.819 35.793-13.731 52.208-26.016l10.749 9.7505c6.3006 4.4854 11.513-0.21494 12.134-10.568 3.0771-23.897 7.8155-45.159 8.2749-68.789 3.079-27.631-5.8937-24.148-25.929-22.964-21.057 0.67597-37.064 3.1621-58.121 7.8409-11.21 2.0853-15.241 6.1807-9.4815 13.92l8.3439 10.097c-8.9572 6.0692-13.773 10.586-26.396 12.166-35.939 5.6302-74.143-14.659-88.781-48.125-16.833-24.9-15.751-56.69 4.2417-79.955 5.9279-4.8612 6.1848-10.309 2.3592-14.537z" fill="#ff0"/>
        <path d="m-288.73 405.25c-4.3509-4.1702-10.099-5.2538-16.196 0.0565-16.968 15.596-27.706 37.246-35.389 61.121-20.491 55.143-3.5256 119.61 36.5 161.56 39.99 43.44 106.13 61.969 162.31 42.469 20.702-6.819 35.793-13.731 52.208-26.016l10.749 9.7505c6.3006 4.4854 11.513-0.21494 12.134-10.568 3.0771-23.897 7.8155-45.159 8.2749-68.789 3.079-27.631-5.8937-24.148-25.929-22.964-21.057 0.67597-37.064 3.1621-58.121 7.8409-11.21 2.0853-15.241 6.1807-9.4815 13.92l8.3439 10.097c-8.9572 6.0692-13.773 10.586-26.396 12.166-35.939 5.6302-74.143-14.659-88.781-48.125-16.833-24.9-15.751-56.69 4.2417-79.955 5.9279-4.8612 6.1848-10.309 2.3592-14.537z" fill="url(#a)"/>
        <path d="m-78.744 443.08c5.5869 0.65925 44.449 36.093 42.785 30.212-3.7502-22.74-9.3685-40.511-25.132-60.019-34.903-47.354-98.126-68.481-155.15-57.985-58.25 9.653-109.99 54.831-124.46 112.51-5.638 21.054-9.3177 36.684-6.4497 57.332l-14.437 4.2469c-7.2043 2.8132-6.1279 9.7487 2.193 15.94 18.305 15.667 33.495 31.28 53.012 44.611 21.428 17.715 22.485 7.6814 32.472-9.7281 10.971-17.986 18.607-32.12 26.23-52.299 4.3975-10.52 3.1801-16.136-6.4503-15.559l-14.006 1.6541c-0.16961-10.818-0.32179-17.528 5.2726-28.954 14.981-33.149 54.398-56.515 90.415-50.425 31.77 4.3037 54.957 3.3408 63.466 32.812-0.12414 6.1979 12.203-20.115 21.421-23.408 2.9351-0.92374 4.197-2.1933 8.8203-0.9477z" fill="#f00"/>
        <path d="m-78.396 443.52c5.587 0.65925 44.449 36.093 42.785 30.212-3.7502-22.74-9.3685-40.511-25.132-60.019-34.903-47.354-98.126-68.481-155.15-57.985-58.25 9.653-109.99 54.831-124.46 112.51-5.638 21.054-9.3177 36.684-6.4497 57.332l-14.437 4.2469c-7.2043 2.8132-6.1279 9.7487 2.193 15.94 18.305 15.667 33.495 31.28 53.012 44.611 21.428 17.715 22.485 7.6814 32.472-9.7281 10.971-17.986 18.607-32.12 26.23-52.299 4.3975-10.52 3.1801-16.136-6.4503-15.559l-14.006 1.6541c-0.16961-10.818-0.32179-17.528 5.2726-28.954 14.981-33.149 54.398-56.515 90.415-50.425 31.77 4.3037 54.957 3.3408 63.466 32.812-0.12414 6.1979 12.203-20.115 21.421-23.408 2.9351-0.92374 4.197-2.1933 8.8203-0.9477z" fill="url(#b)"/>
        <path d="m-60.292 609.03c29.118-37.726 37.029-62.83 33.632-114.77-5.3185-58.804-44.824-115.97-101.28-134.66-20.58-7.1797-36.399-9.4832-57.707-9.159l-3.1675-14.712c-2.2726-7.3926-9.2688-6.8321-16.059 1.008-16.978 17.096-33.672 31.09-48.41 49.567-19.251 20.059-9.3234 21.856 7.2999 33.102 17.125 12.272 30.656 25.925 50.215 35.019 10.166 5.1636 15.857 4.3649 15.993-5.2819l-0.61372-11.949c18.368-2.3956 25.942-1.7557 37.931 4.164 26.906 13.86 45.026 51.827 36.289 87.294-4.1194 15.447-8.9989 20.153-14.555 26.581 82.603-6.5023 63.506-10.323 60.43 53.801z" fill="#0f0"/>
        <path d="m-60.14 609.21c29.118-37.726 37.029-62.83 33.632-114.77-5.3185-58.804-44.824-115.97-101.28-134.66-20.58-7.1797-36.399-9.4832-57.707-9.159l-3.1675-14.712c-2.2726-7.3926-9.2688-6.8321-16.059 1.008-16.978 17.096-33.672 31.09-48.41 49.567-19.251 20.059-9.3234 21.856 7.2999 33.102 17.125 12.272 30.656 25.925 50.215 35.019 10.166 5.1636 15.857 4.3649 15.993-5.2819l-0.61372-11.949c18.368-2.3956 25.942-1.7557 37.931 4.164 26.906 13.86 45.026 51.827 36.289 87.294-4.1194 15.447-8.9989 20.153-14.555 26.581 82.603-6.5023 63.506-10.323 60.43 53.801z" fill="url(#c)"/>
      </g>
    </g>
  </g>
</svg>
